HIERARCHY
ROOT Hips
{
  OFFSET 48.7828 100.653 -259.187
  CHANNELS 6 Xposition Yposition Zposition Zrotation Xrotation Yrotation
  JOINT ToSpine
  {
    OFFSET -0.0105055 1.38907 -7.13956
    CHANNELS 3 Zrotation Xrotation Yrotation
    JOINT Spine
    {
      OFFSET 0.0105055 10 1
      CHANNELS 3 Zrotation Xrotation Yrotation
      JOINT Spine1
      {
        OFFSET 0 12 1.60637
        CHANNELS 3 Zrotation Xrotation Yrotation
        JOINT Neck
        {
          OFFSET 0 27 2.26658
          CHANNELS 3 Zrotation Xrotation Yrotation
          JOINT Head
          {
            OFFSET 0 9 2.12705
            CHANNELS 3 Zrotation Xrotation Yrotation
            End Site
            {
              OFFSET 0 11 2
            }
          }
        }
        JOINT LeftShoulder
        {
          OFFSET 8 19.6109 2.86452
          CHANNELS 3 Zrotation Xrotation Yrotation
          JOINT LeftArm
          {
            OFFSET 12 1 0.681055
            CHANNELS 3 Zrotation Xrotation Yrotation
            JOINT LeftForeArm
            {
              OFFSET 19 0 -1.52608
              CHANNELS 3 Zrotation Xrotation Yrotation
              JOINT LeftHand
              {
                OFFSET 23 0 0
                CHANNELS 3 Zrotation Xrotation Yrotation
                End Site
                {
                  OFFSET 10 0 0
                }
              }
            }
          }
        }
        JOINT RightShoulder
        {
          OFFSET -8 19.6109 2.86452
          CHANNELS 3 Zrotation Xrotation Yrotation
          JOINT RightArm
          {
            OFFSET -12 1 0.681055
            CHANNELS 3 Zrotation Xrotation Yrotation
            JOINT RightForeArm
            {
              OFFSET -19 0 -1.52608
              CHANNELS 3 Zrotation Xrotation Yrotation
              JOINT RightHand
              {
                OFFSET -23 0 0
                CHANNELS 3 Zrotation Xrotation Yrotation
                End Site
                {
                  OFFSET -10 0 0
                }
              }
            }
          }
        }
      }
    }
  }
  JOINT LeftUpLeg
  {
    OFFSET 9 -7.17245 0
    CHANNELS 3 Zrotation Xrotation Yrotation
    JOINT LeftLeg
    {
      OFFSET 0 -44.1113 0
      CHANNELS 3 Zrotation Xrotation Yrotation
      JOINT LeftFoot
      {
        OFFSET 0 -36.1829 0
        CHANNELS 3 Zrotation Xrotation Yrotation
        JOINT LeftToeBase
        {
          OFFSET 0 -4.84184 13
          CHANNELS 3 Zrotation Xrotation Yrotation
          End Site
          {
            OFFSET 0 1 6
          }
        }
      }
    }
  }
  JOINT RightUpLeg
  {
    OFFSET -9 -7.17245 0
    CHANNELS 3 Zrotation Xrotation Yrotation
    JOINT RightLeg
    {
      OFFSET 0 -44.0551 0
      CHANNELS 3 Zrotation Xrotation Yrotation
      JOINT RightFoot
      {
        OFFSET 0 -36.1469 0
        CHANNELS 3 Zrotation Xrotation Yrotation
        JOINT RightToeBase
        {
          OFFSET 0 -4.92256 13
          CHANNELS 3 Zrotation Xrotation Yrotation
          End Site
          {
            OFFSET 0 1 6
          }
        }
      }
    }
  }
}
MOTION
Frames:	21
Frame Time:	0.0333333
48.7676 100.658 -259.185 1.67578 -0.434631 -5.42801 0 0 0 3.52656 2.54262 1.79038 -4.65108 1.54347 2.68706 5.89762 3.53409 0.207008 -1.49052 4.37441 2.49884 -30.3009 3.28997 -5.52922 -41.3988 29.6184 -14.6342 -4.27754 -2.7846 -5.97549 -9.65511 0.456844 -5.40459 23.0312 4.24676 10.9032 52.6715 22.8728 8.37125 6.06268 -4.25832 6.10323 2.04456 0.0552299 3.47841 3.02449 3.75361 7.51354 -1.89986 1.07182 -15.4675 5.47075 -2.2506 0.108437 0.0404293 -6.60512 2.14318 0.831171 3.71008 -6.76169 0.700167 4.17285 -0.300674 -11.9303 -4.05165 -0.423859 3.53941 -13.0075 -5.53669 
48.6539 100.679 -259.164 1.67932 -0.336959 -5.33762 0 0 0 4.42143 2.66592 1.42671 -5.67527 1.4641 2.50655 6.17835 3.87225 0.516432 -1.76716 3.91504 2.97792 -30.0152 3.22045 -5.41396 -42.0885 28.818 -13.4251 -3.70263 -2.60659 -7.11837 -9.82827 0.421898 -4.9043 23.5125 4.57842 11.7909 55.1891 16.1906 2.85746 1.31302 1.52686 14.6719 3.3691 0.0561237 1.75494 2.97101 3.3168 7.27775 -1.49008 1.74991 -14.9779 4.52058 -3.00609 0.112122 0.196457 -5.95387 0.982469 0.972731 3.70995 -6.63293 0.62551 3.91239 -0.451598 -12.2137 -3.51751 -0.374466 3.69012 -13.6678 -5.56332 
48.375 100.701 -259.116 2.015 -0.292801 -5.39373 0 0 0 4.09194 2.61714 1.01139 -5.29611 1.5978 1.99786 4.48221 4.17148 1.54762 -0.431727 3.99106 3.11127 -31.1251 3.07755 -4.76189 -41.7812 28.2684 -12.1366 -3.33172 -3.27834 -8.58154 -9.51921 0.229222 -2.75852 23.1842 4.83969 12.8178 54.7679 16.7641 3.23964 1.1052 3.13451 14.1972 4.00126 0.119079 3.43548 2.89213 2.85248 7.42359 -1.56213 2.70987 -13.7392 2.87469 -4.38726 0.110758 0.518184 -4.58978 -1.05974 0.740496 3.75117 -6.8368 0.913934 3.67682 -0.0630022 -13.1452 -2.68903 -0.310354 4.02528 -15.2445 -6.55529 
48.0799 100.719 -259.094 2.19964 -0.334071 -5.27519 0 0 0 4.47449 2.9113 0.920651 -6.37398 1.38773 2.12693 6.40983 4.06811 0.938917 -2.18581 4.34015 3.59358 -29.5528 3.00952 -4.932 -42.9504 27.9667 -12.1633 -3.384 -3.40343 -8.12261 -8.80416 0.226897 -2.94608 24.2594 4.90804 12.4949 53.9664 17.0157 3.4192 1.50188 2.35412 13.8961 3.94546 0.111101 3.22441 2.85714 2.75459 7.12557 -1.49724 2.72415 -12.9841 5.22146 -3.88599 0.178192 0.614687 -6.67227 -0.970341 0.661767 3.51996 -6.9163 0.919999 4.41564 -0.244066 -12.733 -3.35897 -0.375024 3.96136 -14.9296 -6.33369 
47.8104 100.712 -259.086 2.26601 -0.424639 -5.35218 0 0 0 4.61816 3.4086 0.907874 -6.43723 0.98274 2.12941 6.19706 4.50854 1.09331 -1.97129 4.15858 3.64262 -29.8116 3.02523 -4.91623 -42.6833 28.1555 -11.5377 -3.20926 -3.88288 -8.84133 -9.4186 0.257608 -3.13047 24.4454 4.99184 12.672 53.8449 16.5093 3.19242 1.48867 2.28643 13.6978 4.01545 0.103485 2.95011 2.86803 2.63247 6.98522 -1.31175 3.21812 -13.0721 5.26646 -4.11771 0.189267 0.427406 -6.87498 0.136899 0.660442 3.58434 -7.08076 1.06895 4.55945 -0.0257266 -12.5467 -3.48333 -0.382982 3.89569 -14.6171 -6.00605 
47.5373 100.68 -259.128 2.25991 -0.207677 -5.32877 0 0 0 4.4137 3.18432 1.06163 -5.70805 1.2637 2.16387 5.60791 4.64847 1.08993 -1.74156 4.10259 3.39081 -30.4669 3.08231 -4.92304 -42.2723 27.8986 -11.5463 -3.13049 -3.95495 -9.02501 -8.85431 0.266119 -3.42038 23.8854 4.81239 12.3732 53.8687 16.328 3.41494 1.34495 2.76107 13.6828 4.27382 0.11912 3.19261 3.10563 2.15481 6.9478 -1.14215 3.68906 -12.8197 4.23842 -4.32445 0.160219 0.58283 -6.88708 -0.717747 0.945021 3.30149 -6.82556 0.933023 4.64754 -0.354568 -12.5256 -3.7464 -0.411521 3.81981 -14.2707 -6.03595 
47.1982 100.607 -259.071 2.32235 -0.231754 -5.89335 0 0 0 4.54934 3.05472 1.34595 -5.82658 1.61767 2.48435 5.22782 4.87248 1.21993 -1.14829 4.01191 3.24998 -30.7587 3.11889 -4.95593 -42.0515 27.1474 -11.334 -2.68566 -2.8366 -9.19858 -7.78337 0.204797 -3.01643 23.6747 4.9488 12.9225 53.9273 16.1574 3.00837 1.39236 2.15114 13.9834 4.10061 0.130606 3.64976 3.34804 2.1443 7.23482 -1.30275 4.13064 -12.6224 4.25978 -4.7572 0.177077 0.550369 -7.08617 -0.469376 1.13551 3.35564 -6.56087 0.861527 4.63806 -0.103853 -13.1326 -4.08766 -0.470474 3.78617 -14.1154 -6.0754 
46.9467 100.558 -259.03 2.49838 -0.335902 -5.7145 0 0 0 5.056 3.14733 1.16651 -6.73516 1.73726 2.50208 5.59163 4.98257 1.05225 -1.08886 4.00432 3.19689 -30.1048 3.03832 -4.88496 -42.5249 26.3864 -11.2557 -2.67116 -3.01377 -8.97249 -7.74245 0.239423 -3.53672 24.1916 5.04633 12.9756 53.7907 16.221 2.87633 1.02102 2.9814 14.3446 3.52834 0.106419 3.43516 3.3479 1.9416 7.14599 -1.25311 4.84134 -12.6087 4.25543 -5.15279 0.191499 0.561002 -7.29611 -0.454554 1.17159 3.58848 -6.6129 0.880133 4.51321 -0.281611 -13.8297 -4.15883 -0.504428 3.84309 -14.3843 -6.49321 
46.5911 100.518 -259.077 2.50108 -0.284959 -5.52309 0 0 0 4.97951 3.52212 1.17054 -6.666 1.38242 2.51474 6.09622 5.46021 0.852341 -1.60411 3.34347 3.32217 -29.8241 3.0574 -5.00504 -42.5183 26.015 -10.8453 -2.54935 -3.29047 -9.33846 -7.72597 0.244526 -3.62107 24.3194 4.94467 12.5852 53.8333 16.4353 3.11637 1.23365 2.60177 14.1937 3.09459 0.0793931 2.94373 3.69564 1.20291 7.17737 -1.24173 6.29015 -12.8794 4.14341 -5.9329 0.214845 0.516769 -6.91579 -0.34353 1.49086 3.4205 -6.42926 0.716289 4.81608 -0.614619 -13.8942 -4.53077 -0.551898 3.71322 -13.7857 -6.01932 
46.2709 100.413 -259.08 2.48981 -0.345396 -5.30715 0 0 0 5.62787 3.64935 1.24508 -7.71911 1.43551 2.83967 7.58779 6.03266 0.159318 -2.82225 2.7405 3.4769 -28.8752 3.10502 -5.36332 -42.9044 24.9302 -10.7994 -2.32454 -2.92555 -9.12239 -8.11869 0.248191 -3.49499 25.1248 5.03671 12.4824 53.6212 16.1685 3.31951 1.61354 1.97595 13.6491 3.24742 0.0968844 3.42429 3.81052 0.242863 6.74167 -0.740755 8.5286 -12.6905 4.07976 -7.16418 0.255499 0.527885 -7.06502 -0.353582 1.62619 3.22592 -6.59125 0.956421 5.4931 -0.902176 -14.9142 -4.55993 -0.598033 3.94705 -14.8499 -6.04483 
46.0647 100.229 -259.106 2.40762 -0.477818 -5.14542 0 0 0 6.14606 4.03029 1.31944 -7.6645 1.41478 2.97349 6.41771 6.27556 0.257683 -1.83167 2.86476 2.94123 -29.8179 3.12672 -5.19605 -41.9698 24.0627 -10.7109 -2.21761 -2.9814 -9.27276 -8.59511 0.275481 -3.66542 24.2997 4.89698 12.4413 54.402 16.2247 3.36186 1.14944 3.8327 13.5956 3.21954 0.0801769 2.82551 3.97667 -1.16911 6.25468 -0.265436 11.8675 -12.1172 3.9678 -9.13013 0.316332 0.590129 -6.84588 -0.769909 1.64503 2.65394 -6.90856 1.33288 7.15133 -0.934803 -15.843 -5.3042 -0.738163 4.08459 -15.5202 -6.63043 
45.7807 99.9966 -259.168 1.89479 -0.918984 -4.87003 0 0 0 7.19635 5.07736 1.27978 -8.08385 1.16132 3.1069 6.32833 6.52982 -0.0474078 -1.72214 2.68263 2.5919 -29.8841 3.06197 -5.00124 -41.4736 23.7365 -10.8448 -2.18059 -3.47566 -9.42324 -8.74854 0.303779 -3.96965 24.5274 4.92889 12.4318 54.2419 17.1266 3.26021 1.1526 3.74392 13.9327 2.86454 0.0445607 1.80202 4.63867 -2.97629 5.72674 0.273706 16.702 -12.0107 3.95191 -11.1642 0.387292 0.592574 -7.66904 -0.506986 2.24707 2.7373 -6.96704 1.60289 8.12021 -1.13696 -16.6141 -5.56024 -0.812168 4.19997 -16.0968 -7.03844 
45.4933 99.8142 -259.268 1.58672 -0.897362 -3.88793 0 0 0 7.74488 5.65039 1.04263 -8.00261 0.836556 2.89358 5.52727 6.53793 0.124976 -1.33778 2.78608 2.38903 -30.2192 3.03538 -4.85116 -41.2675 22.5745 -10.3483 -1.74408 -3.05931 -10.3757 -9.21062 0.342638 -4.25002 24.4151 5.0607 12.9088 54.2271 17.5168 3.13713 1.46001 2.98701 13.8604 3.42522 0.0411881 1.36948 4.90631 -6.10755 3.36329 0.539465 22.4428 -10.1994 4.43901 -11.9389 0.463903 0.591728 -8.42124 -0.222826 2.71784 2.39219 -7.06109 1.90487 8.91302 -2.66994 -17.4449 -6.2299 -0.958109 4.33396 -16.5944 -6.13621 
45.2079 99.823 -259.322 1.31226 -1.01858 -3.48107 0 0 0 8.49617 6.42634 1.13886 -8.18867 0.400678 3.07608 4.67772 7.30285 0.137653 -0.568209 1.82323 1.94377 -31.0934 3.05543 -4.71115 -40.3589 22.4971 -9.87939 -1.6652 -4.03952 -11.4609 -9.45322 0.38394 -4.64267 24.2941 5.09302 13.0752 54.0972 17.6222 3.03869 1.63345 2.71607 13.7266 4.26567 0.0493963 1.30297 5.023 -9.03964 0.338444 0.0178451 28.0471 -8.12672 4.84688 -11.7937 0.501352 0.66707 -6.88212 -1.15613 3.16835 2.39121 -6.92107 1.8707 9.21678 -4.96063 -18.0507 -7.56527 -1.20262 4.11279 -15.3794 -2.27654 
44.8775 99.8245 -259.249 1.20095 -1.56862 -2.95966 0 0 0 8.6172 7.30966 1.18951 -7.94598 0.459387 3.14237 3.9248 7.82546 0.150402 0.0267588 1.05988 1.56526 -31.7077 3.05234 -4.56909 -39.9276 22.4128 -9.58534 -1.63347 -4.58429 -12.2954 -9.73733 0.359642 -4.22456 23.9401 5.12305 13.3522 54.2296 17.3499 3.20525 1.25761 4.50286 13.3047 3.6456 0.048697 1.64895 4.79163 -11.5772 -1.12069 -0.00829437 33.7493 -7.59478 6.30256 -12.0668 0.666486 0.530909 -4.23266 -1.27889 3.67872 3.44734 -6.69648 1.71831 8.39148 -5.38113 -17.8742 -7.375 -1.16116 3.97316 -14.8392 -2.78437 
44.7498 99.7765 -259.182 1.42896 -1.57923 -2.52755 0 0 0 9.00203 7.68415 1.16241 -8.75696 0.544502 3.31406 4.79727 7.6133 -0.0639961 -0.582904 1.46284 1.80065 -31.0517 2.95405 -4.44842 -40.8443 21.0341 -8.86662 -1.15849 -4.0707 -13.0462 -10.5373 0.393658 -4.25035 24.5325 5.28892 13.5779 53.5716 17.211 3.58886 1.33588 5.16349 12.6592 2.6602 0.0947524 3.999 3.69756 -14.5278 -2.8245 0.00912805 38.4838 -6.74293 7.60426 -12.2456 0.815009 0.930532 -2.51287 -3.50412 3.61751 3.39113 -6.73176 1.61601 8.67855 -5.80037 -18.0126 -7.80261 -1.23815 4.01395 -15.0267 -3.34605 
44.5965 99.7332 -259.042 1.70695 -1.52761 -2.43174 0 0 0 8.92257 8.15599 1.45746 -8.47749 0.267098 3.55351 3.54428 8.46238 -0.0695079 0.221309 0.945419 1.18179 -32.383 2.98815 -4.26262 -39.8458 20.9794 -8.03427 -1.46323 -5.60301 -13.478 -11.2308 0.484287 -4.92445 23.3671 5.12046 13.6522 53.9756 17.939 3.99937 1.5732 5.85156 12.027 2.49468 0.094463 4.32338 2.45418 -16.9956 -4.19829 -0.0106853 41.205 -5.78902 6.53747 -12.7302 0.728971 0.92279 -1.979 -3.56767 3.40086 3.52026 -6.8516 1.73326 8.50149 -5.79203 -18.8543 -7.76008 -1.29014 4.10445 -15.381 -3.00413 
44.3804 99.7519 -258.814 1.95364 -1.48885 -2.90544 0 0 0 9.17083 8.78084 1.76711 -8.9261 -0.208177 3.95927 2.88981 9.45256 0.311149 0.79278 0.601568 1.21932 -32.9085 2.88553 -3.89406 -39.6305 20.7928 -6.97786 -1.54303 -5.84209 -14.2096 -10.238 0.364624 -4.06741 23.1652 5.24345 14.1665 53.8773 18.1559 4.18849 1.73142 5.90597 11.6455 2.20203 0.0787511 4.09393 1.73475 -18.8127 -3.51693 -0.000719689 41.7313 -6.76474 7.38212 -11.8565 0.768491 1.08614 -3.23075 -4.15153 3.21433 3.52167 -6.91232 1.70743 8.75311 -5.08947 -18.6681 -7.90098 -1.29862 4.10559 -15.3404 -3.69524 
44.2396 99.7002 -258.392 2.35016 -1.69788 -2.83114 0 0 0 9.37109 9.12616 1.78101 -9.71541 0.0191271 4.14895 2.55065 9.88047 0.506528 1.34608 0.656905 1.16987 -33.0256 2.73325 -3.48282 -39.4178 22.0796 -5.53995 -2.03246 -7.7768 -16.7028 -10.1892 0.241668 -2.71084 23.5087 5.47711 14.7478 53.3195 18.0158 4.56644 1.82002 5.83351 11.4024 2.59815 0.0987278 4.35193 0.377951 -20.1535 -3.92512 0.00551438 41.1116 -7.45811 6.91978 -11.2279 0.677526 1.36914 -2.66426 -5.54364 2.97906 4.42824 -7.15038 1.77254 7.81936 -3.92992 -18.824 -6.63865 -1.09894 4.55016 -17.8205 -7.22859 
43.9987 99.5796 -257.795 2.46068 -1.77743 -2.74848 0 0 0 9.42937 9.22915 1.88126 -9.44953 0.290107 4.21641 0.902901 10.414 0.884475 2.19777 0.373291 0.739762 -34.2904 2.9211 -3.72719 -39.0281 21.1956 -4.60562 -2.06215 -7.41657 -15.6941 -10.3723 0.271508 -2.98881 22.5045 5.35173 14.9136 53.8659 17.9294 4.8821 1.76463 5.39313 11.6036 2.7725 0.106528 4.40072 -0.576229 -21.2457 -3.82841 0.00445359 39.0866 -9.90929 7.1726 -9.11719 0.573859 1.08656 -4.55389 -3.91579 3.13346 5.05145 -7.03716 1.43705 7.66481 -3.40688 -16.9826 -7.37151 -1.1042 4.13923 -15.7936 -6.83234 
43.6655 99.5353 -257.09 2.18084 -2.11399 -2.72528 0 0 0 10.2084 9.72638 1.84593 -10.1356 0.497743 4.38974 0.549687 10.6617 1.20026 2.36947 0.166859 0.885648 -33.6446 2.91998 -3.85311 -40.2125 19.5885 -3.54367 -1.94873 -6.47992 -15.2304 -10.1412 0.248838 -2.80113 22.1864 5.24511 14.7529 54.1094 18.4163 5.53256 1.67262 5.40776 11.9392 2.74422 0.102882 4.30255 -0.875643 -21.6246 -2.96303 0.00572311 35.7781 -12.2172 5.39051 -8.24492 0.388994 0.905733 -3.65119 -3.19475 3.875 6.64546 -6.63629 1.07844 6.11552 -3.84737 -16.5694 -7.30343 -1.06037 4.13715 -15.6876 -5.48668 
